<?xml version="1.0" encoding="UTF-8"?>
<!DOCTYPE svg PUBLIC "-//W3C//DTD SVG 1.1//EN" "http://www.w3.org/Graphics/SVG/1.1/DTD/svg11.dtd">
<svg xmlns="http://www.w3.org/2000/svg" version="1.1" width="225px" height="225px" style="shape-rendering:geometricPrecision; text-rendering:geometricPrecision; image-rendering:optimizeQuality; fill-rule:evenodd; clip-rule:evenodd" xmlns:xlink="http://www.w3.org/1999/xlink">
<g><path style="opacity:1" fill="#eab061" d="M 97.5,-0.5 C 100.167,-0.5 102.833,-0.5 105.5,-0.5C 101.081,0.971511 96.4141,1.63818 91.5,1.5C 93.5,0.833333 95.5,0.166667 97.5,-0.5 Z"/></g>
<g><path style="opacity:1" fill="#ecae62" d="M 119.5,-0.5 C 121.833,-0.5 124.167,-0.5 126.5,-0.5C 130.191,0.393406 133.858,1.39341 137.5,2.5C 131.134,2.93818 125.134,1.93818 119.5,-0.5 Z"/></g>
<g><path style="opacity:1" fill="#f6931c" d="M 105.5,-0.5 C 110.167,-0.5 114.833,-0.5 119.5,-0.5C 125.134,1.93818 131.134,2.93818 137.5,2.5C 137.97,3.69348 138.97,4.36015 140.5,4.5C 143.14,5.09513 145.807,5.42847 148.5,5.5C 148.833,5.5 149.167,5.5 149.5,5.5C 149.5,6.5 149.5,7.5 149.5,8.5C 153.789,9.61253 158.122,10.6125 162.5,11.5C 165.45,12.3084 168.117,13.6418 170.5,15.5C 170.5,16.8333 170.5,18.1667 170.5,19.5C 174.334,20.3243 178.001,21.6576 181.5,23.5C 182.167,23.8333 182.833,24.1667 183.5,24.5C 183.525,27.179 184.858,28.5123 187.5,28.5C 189.167,29.5 190.5,30.8333 191.5,32.5C 192.458,36.1958 194.791,38.8624 198.5,40.5C 199.933,42.5582 200.6,44.8915 200.5,47.5C 201.959,47.4326 203.292,47.7659 204.5,48.5C 204.343,49.8734 204.51,51.2068 205,52.5C 205.876,54.6355 207.376,55.9688 209.5,56.5C 214.366,63.4063 217.699,71.073 219.5,79.5C 219.41,82.1522 220.076,84.4855 221.5,86.5C 221.743,92.184 222.243,97.8507 223,103.5C 223.278,104.416 223.778,105.082 224.5,105.5C 224.5,110.5 224.5,115.5 224.5,120.5C 222.613,125.872 221.613,131.539 221.5,137.5C 221.768,139.099 221.434,140.432 220.5,141.5C 218.905,143.111 217.739,145.111 217,147.5C 215.407,151.73 214.24,156.063 213.5,160.5C 212.258,164.655 210.258,168.322 207.5,171.5C 206.292,172.234 204.959,172.567 203.5,172.5C 203.5,173.5 203.5,174.5 203.5,175.5C 202.325,175.281 201.325,175.614 200.5,176.5C 199.652,178.409 199.318,180.409 199.5,182.5C 195.539,188.129 190.873,193.129 185.5,197.5C 182.8,196.794 180.967,196.794 180,197.5C 179.77,201.483 178.437,202.149 176,199.5C 175.51,200.793 175.343,202.127 175.5,203.5C 174.167,203.5 172.833,203.5 171.5,203.5C 171.5,204.833 171.5,206.167 171.5,207.5C 170.71,208.401 169.71,209.068 168.5,209.5C 161.11,210.399 155.444,213.065 151.5,217.5C 151.167,217.5 150.833,217.5 150.5,217.5C 145.974,217.897 141.974,219.23 138.5,221.5C 136.621,222.341 134.621,222.675 132.5,222.5C 127.821,222.334 123.155,222.501 118.5,223C 117.944,223.383 117.611,223.883 117.5,224.5C 113.5,224.5 109.5,224.5 105.5,224.5C 105.389,223.883 105.056,223.383 104.5,223C 98.5112,222.301 92.5112,221.801 86.5,221.5C 84.4855,220.076 82.1522,219.41 79.5,219.5C 77.8984,217.926 75.8984,217.259 73.5,217.5C 66.4715,215.818 60.1382,212.818 54.5,208.5C 53.4263,205.932 51.4263,204.265 48.5,203.5C 47.6143,202.675 47.281,201.675 47.5,200.5C 44.8915,200.6 42.5582,199.933 40.5,198.5C 40.0269,197.094 39.0269,196.427 37.5,196.5C 34.5,194.167 31.8333,191.5 29.5,188.5C 29.5792,187.07 29.2458,185.736 28.5,184.5C 30.0314,183.387 31.0314,181.887 31.5,180C 31.1667,179.167 30.8333,178.333 30.5,177.5C 27.6496,184.261 25.3163,184.094 23.5,177C 23.9054,176.055 24.572,175.388 25.5,175C 23.4233,174.808 21.4233,174.308 19.5,173.5C 16.9702,169.774 14.9702,165.774 13.5,161.5C 12.4456,159.112 10.7789,157.445 8.5,156.5C 7.89022,155.609 7.55688,154.609 7.5,153.5C 5.9066,147.213 4.4066,140.88 3,134.5C 2.61742,133.944 2.11742,133.611 1.5,133.5C 1.5,133.167 1.5,132.833 1.5,132.5C 1.84394,127.878 1.17727,123.545 -0.5,119.5C -0.5,114.833 -0.5,110.167 -0.5,105.5C 1.10419,101.1 1.77086,96.4338 1.5,91.5C 1.5,91.1667 1.5,90.8333 1.5,90.5C 2.64911,90.2089 3.31577,89.3756 3.5,88C 5.52515,82.382 6.85848,76.5487 7.5,70.5C 9.13182,64.5696 11.7985,59.2363 15.5,54.5C 17.6237,53.9688 19.1237,52.6355 20,50.5C 20.49,49.2068 20.6567,47.8734 20.5,46.5C 22.5869,45.4154 23.9202,43.7488 24.5,41.5C 26.4302,37.8998 29.0969,34.8998 32.5,32.5C 37.4667,28.8678 42.1334,24.8678 46.5,20.5C 49.1985,20.5339 51.6985,19.8672 54,18.5C 55.1827,19.731 56.3493,19.731 57.5,18.5C 56.9747,17.8076 56.3081,17.3076 55.5,17C 58.7919,13.6889 62.7919,12.0222 67.5,12C 70.5026,9.86949 73.5026,8.03616 76.5,6.5C 78.5,5.5 80.5,4.5 82.5,3.5C 85.2186,2.08699 88.2186,1.42032 91.5,1.5C 96.4141,1.63818 101.081,0.971511 105.5,-0.5 Z M 107.5,39.5 C 111.136,40.3255 114.803,40.9922 118.5,41.5C 117.66,47.1946 116.66,52.8613 115.5,58.5C 114.876,58.9169 114.543,59.5836 114.5,60.5C 114.747,61.7133 115.414,62.38 116.5,62.5C 119.461,63.3234 122.461,63.99 125.5,64.5C 125.5,63.5 125.5,62.5 125.5,61.5C 125.5,61.1667 125.5,60.8333 125.5,60.5C 126.612,58.4006 127.279,56.0673 127.5,53.5C 127.5,53.1667 127.5,52.8333 127.5,52.5C 128.612,50.4006 129.279,48.0673 129.5,45.5C 133.557,45.8478 137.557,46.5145 141.5,47.5C 141.5,48.1667 141.5,48.8333 141.5,49.5C 139.565,54.5729 138.232,59.9063 137.5,65.5C 136.115,66.9473 136.448,67.9473 138.5,68.5C 146.745,71.4451 153.745,76.1117 159.5,82.5C 159.5,82.8333 159.5,83.1667 159.5,83.5C 163.124,94.3382 160.79,103.672 152.5,111.5C 150.188,112.32 147.854,113.153 145.5,114C 147.391,115.442 149.391,116.609 151.5,117.5C 152.833,119.167 154.167,120.833 155.5,122.5C 155.932,123.71 156.599,124.71 157.5,125.5C 158.36,129.434 158.693,133.434 158.5,137.5C 157.85,139.435 157.517,141.435 157.5,143.5C 155.983,146.035 154.65,148.702 153.5,151.5C 151.167,153.167 149.167,155.167 147.5,157.5C 144.768,158.866 142.101,160.199 139.5,161.5C 135.785,161.423 132.119,161.756 128.5,162.5C 123.66,161.438 118.66,160.938 113.5,161C 111.621,166.351 110.287,171.851 109.5,177.5C 108.596,178.209 108.263,179.209 108.5,180.5C 104.4,179.808 100.4,178.808 96.5,177.5C 97.9667,173.298 98.9667,168.965 99.5,164.5C 100.38,162.863 101.046,161.03 101.5,159C 101.164,157.97 100.497,157.47 99.5,157.5C 96.7814,156.087 93.7814,155.42 90.5,155.5C 90.5,156.833 90.5,158.167 90.5,159.5C 88.8984,163.239 87.8984,167.239 87.5,171.5C 86.596,172.209 86.2627,173.209 86.5,174.5C 82.2542,174.439 78.2542,173.439 74.5,171.5C 75.8156,167.571 76.8156,163.571 77.5,159.5C 77.5,159.167 77.5,158.833 77.5,158.5C 78.3796,156.863 79.0463,155.03 79.5,153C 79.1639,151.97 78.4972,151.47 77.5,151.5C 77.1667,151.5 76.8333,151.5 76.5,151.5C 74.7857,150.262 72.7857,149.595 70.5,149.5C 70.1667,149.5 69.8333,149.5 69.5,149.5C 67.4006,148.388 65.0673,147.721 62.5,147.5C 60.6208,146.659 58.6208,146.325 56.5,146.5C 55.8902,145.609 55.5569,144.609 55.5,143.5C 55.5,143.167 55.5,142.833 55.5,142.5C 57.2927,140.574 58.2927,138.241 58.5,135.5C 59.2342,134.071 60.4009,133.071 62,132.5C 65.4078,133.897 68.9078,134.397 72.5,134C 74.3757,133.082 75.3757,131.582 75.5,129.5C 75.5,129.167 75.5,128.833 75.5,128.5C 77.123,124.022 78.4563,119.356 79.5,114.5C 79.5,113.833 79.5,113.167 79.5,112.5C 80.9448,109.063 81.9448,105.397 82.5,101.5C 82.5,101.167 82.5,100.833 82.5,100.5C 84.278,95.7285 85.6113,90.7285 86.5,85.5C 87.3007,83.9582 87.634,82.2915 87.5,80.5C 90.426,76.4993 90.0927,72.8326 86.5,69.5C 82.785,67.5949 78.785,66.2616 74.5,65.5C 75.6336,62.6296 76.3003,59.6296 76.5,56.5C 77.404,55.791 77.7373,54.791 77.5,53.5C 79.8056,53.9926 82.139,54.3259 84.5,54.5C 88.2393,56.1016 92.2393,57.1016 96.5,57.5C 102.495,60.8869 105.162,58.8869 104.5,51.5C 105.812,47.5837 106.812,43.5837 107.5,39.5 Z"/></g>
<g><path style="opacity:1" fill="#ebaa5e" d="M 137.5,2.5 C 141.479,2.74241 145.146,3.74241 148.5,5.5C 145.807,5.42847 143.14,5.09513 140.5,4.5C 138.97,4.36015 137.97,3.69348 137.5,2.5 Z"/></g>
<g><path style="opacity:1" fill="#eab46f" d="M 82.5,3.5 C 80.5,4.5 78.5,5.5 76.5,6.5C 74.5648,7.14952 72.5648,7.48285 70.5,7.5C 74.0845,5.19393 78.0845,3.8606 82.5,3.5 Z"/></g>
<g><path style="opacity:1" fill="#efa755" d="M 149.5,5.5 C 154.25,6.74303 158.584,8.74303 162.5,11.5C 158.122,10.6125 153.789,9.61253 149.5,8.5C 149.5,7.5 149.5,6.5 149.5,5.5 Z"/></g>
<g><path style="opacity:1" fill="#ef9938" d="M 76.5,6.5 C 73.5026,8.03616 70.5026,9.86949 67.5,12C 62.7919,12.0222 58.7919,13.6889 55.5,17C 56.3081,17.3076 56.9747,17.8076 57.5,18.5C 56.3493,19.731 55.1827,19.731 54,18.5C 51.6985,19.8672 49.1985,20.5339 46.5,20.5C 53.5765,14.6256 61.5765,10.2922 70.5,7.5C 72.5648,7.48285 74.5648,7.14952 76.5,6.5 Z"/></g>
<g><path style="opacity:1" fill="#eca853" d="M 170.5,15.5 C 174.736,17.4449 178.403,20.1116 181.5,23.5C 178.001,21.6576 174.334,20.3243 170.5,19.5C 170.5,18.1667 170.5,16.8333 170.5,15.5 Z"/></g>
<g><path style="opacity:1" fill="#e8af67" d="M 46.5,20.5 C 42.1334,24.8678 37.4667,28.8678 32.5,32.5C 36.2781,27.383 40.9448,23.383 46.5,20.5 Z"/></g>
<g><path style="opacity:1" fill="#edac67" d="M 183.5,24.5 C 185.167,25.5 186.5,26.8333 187.5,28.5C 184.858,28.5123 183.525,27.179 183.5,24.5 Z"/></g>
<g><path style="opacity:1" fill="#eaa449" d="M 191.5,32.5 C 194.573,34.5691 196.906,37.2358 198.5,40.5C 194.791,38.8624 192.458,36.1958 191.5,32.5 Z"/></g>
<g><path style="opacity:1" fill="#eea552" d="M 107.5,39.5 C 108.793,38.8418 110.293,38.5085 112,38.5C 114.718,38.5637 116.885,39.5637 118.5,41.5C 114.803,40.9922 111.136,40.3255 107.5,39.5 Z"/></g>
<g><path style="opacity:1" fill="#edb971" d="M 24.5,41.5 C 23.9202,43.7488 22.5869,45.4154 20.5,46.5C 21.0798,44.2512 22.4131,42.5846 24.5,41.5 Z"/></g>
<g><path style="opacity:1" fill="#e8a34c" d="M 107.5,39.5 C 106.812,43.5837 105.812,47.5837 104.5,51.5C 104.167,51.5 103.833,51.5 103.5,51.5C 104.162,47.5341 104.495,43.5341 104.5,39.5C 105.5,39.5 106.5,39.5 107.5,39.5 Z"/></g>
<g><path style="opacity:1" fill="#efae5b" d="M 129.5,45.5 C 133.298,44.5166 137.298,44.1832 141.5,44.5C 141.5,45.5 141.5,46.5 141.5,47.5C 137.557,46.5145 133.557,45.8478 129.5,45.5 Z"/></g>
<g><path style="opacity:1" fill="#eaa24a" d="M 198.5,40.5 C 201.471,42.4426 203.471,45.1092 204.5,48.5C 203.292,47.7659 201.959,47.4326 200.5,47.5C 200.6,44.8915 199.933,42.5582 198.5,40.5 Z"/></g>
<g><path style="opacity:0.89" fill="#ebbc7b" d="M 129.5,45.5 C 129.279,48.0673 128.612,50.4006 127.5,52.5C 127.171,49.7718 127.837,47.4385 129.5,45.5 Z"/></g>
<g><path style="opacity:1" fill="#eca84f" d="M 20.5,46.5 C 20.6567,47.8734 20.49,49.2068 20,50.5C 19.1237,52.6355 17.6237,53.9688 15.5,54.5C 16.3833,51.2957 18.0499,48.6291 20.5,46.5 Z"/></g>
<g><path style="opacity:1" fill="#ea9f4a" d="M 204.5,48.5 C 206.95,50.6291 208.617,53.2957 209.5,56.5C 207.376,55.9688 205.876,54.6355 205,52.5C 204.51,51.2068 204.343,49.8734 204.5,48.5 Z"/></g>
<g><path style="opacity:1" fill="#eaaa5b" d="M 84.5,54.5 C 82.139,54.3259 79.8056,53.9926 77.5,53.5C 77.7373,54.791 77.404,55.791 76.5,56.5C 76.5,54.8333 76.5,53.1667 76.5,51.5C 79.4432,51.9802 82.1098,52.9802 84.5,54.5 Z"/></g>
<g><path style="opacity:1" fill="#ee9c3f" d="M 102.5,54.5 C 102.5,55.5 102.5,56.5 102.5,57.5C 100.5,57.5 98.5,57.5 96.5,57.5C 92.2393,57.1016 88.2393,56.1016 84.5,54.5C 88.3905,54.7275 92.2238,54.3942 96,53.5C 97.8114,54.4235 97.6447,55.2569 95.5,56C 98.1982,56.815 100.532,56.315 102.5,54.5 Z"/></g>
<g><path style="opacity:0.89" fill="#e9bc7e" d="M 127.5,53.5 C 127.279,56.0673 126.612,58.4006 125.5,60.5C 125.171,57.7718 125.837,55.4385 127.5,53.5 Z"/></g>
<g><path style="opacity:0.949" fill="#ebbb82" d="M 103.5,51.5 C 103.833,51.5 104.167,51.5 104.5,51.5C 105.162,58.8869 102.495,60.8869 96.5,57.5C 98.5,57.5 100.5,57.5 102.5,57.5C 102.5,56.5 102.5,55.5 102.5,54.5C 103.11,53.609 103.443,52.609 103.5,51.5 Z"/></g>
<g><path style="opacity:0.235" fill="#fae1bd" d="M 115.5,58.5 C 115.263,59.791 115.596,60.791 116.5,61.5C 116.5,61.8333 116.5,62.1667 116.5,62.5C 115.414,62.38 114.747,61.7133 114.5,60.5C 114.543,59.5836 114.876,58.9169 115.5,58.5 Z"/></g>
<g><path style="opacity:0.824" fill="#edba78" d="M 116.5,62.5 C 116.5,62.1667 116.5,61.8333 116.5,61.5C 119.579,62.3719 122.579,62.3719 125.5,61.5C 125.5,62.5 125.5,63.5 125.5,64.5C 122.461,63.99 119.461,63.3234 116.5,62.5 Z"/></g>
<g><path style="opacity:0.42" fill="#f8d7b5" d="M 137.5,65.5 C 137.557,66.609 137.89,67.609 138.5,68.5C 136.448,67.9473 136.115,66.9473 137.5,65.5 Z"/></g>
<g><path style="opacity:1" fill="#e6ab5f" d="M 74.5,65.5 C 78.785,66.2616 82.785,67.5949 86.5,69.5C 83.4781,69.196 80.4781,68.696 77.5,68C 76.0577,67.6232 75.0577,66.7899 74.5,65.5 Z"/></g>
<g><path style="opacity:1" fill="#eb9f41" d="M 141.5,49.5 C 140.614,55.4923 140.614,61.1589 141.5,66.5C 148.178,69.7495 154.011,74.0828 159,79.5C 159.483,80.448 159.649,81.448 159.5,82.5C 153.745,76.1117 146.745,71.4451 138.5,68.5C 137.89,67.609 137.557,66.609 137.5,65.5C 138.232,59.9063 139.565,54.5729 141.5,49.5 Z"/></g>
<g><path style="opacity:1" fill="#eab36f" d="M 86.5,69.5 C 90.0927,72.8326 90.426,76.4993 87.5,80.5C 87.6773,76.7657 87.3439,73.0991 86.5,69.5 Z"/></g>
<g><path style="opacity:0.643" fill="#e9bd89" d="M 116.5,77.5 C 114.114,77.2587 112.114,77.9254 110.5,79.5C 110.312,77.8967 110.812,76.5634 112,75.5C 113.622,76.0989 115.122,76.7656 116.5,77.5 Z"/></g>
<g><path style="opacity:1" fill="#e6a34f" d="M 7.5,70.5 C 6.85848,76.5487 5.52515,82.382 3.5,88C 3.31577,89.3756 2.64911,90.2089 1.5,90.5C 2.52095,83.4455 4.52095,76.7789 7.5,70.5 Z"/></g>
<g><path style="opacity:1" fill="#f69421" d="M 120.5,78.5 C 123.211,83.579 127.544,85.579 133.5,84.5C 135.262,85.2623 136.262,86.5956 136.5,88.5C 136.667,92.6699 136,96.6699 134.5,100.5C 133.547,102.61 131.881,103.777 129.5,104C 124.748,104.773 120.081,104.607 115.5,103.5C 113.172,102.282 110.672,101.282 108,100.5C 108.158,96.5406 108.325,92.5406 108.5,88.5C 111.918,86.1989 113.251,82.8655 112.5,78.5C 115.167,78.5 117.833,78.5 120.5,78.5 Z"/></g>
<g><path style="opacity:1" fill="#e99e3f" d="M 116.5,77.5 C 118.099,77.2322 119.432,77.5655 120.5,78.5C 117.833,78.5 115.167,78.5 112.5,78.5C 113.251,82.8655 111.918,86.1989 108.5,88.5C 108.7,85.3704 109.366,82.3704 110.5,79.5C 112.114,77.9254 114.114,77.2587 116.5,77.5 Z"/></g>
<g><path style="opacity:1" fill="#eab26e" d="M 219.5,79.5 C 220.924,81.5145 221.59,83.8478 221.5,86.5C 220.076,84.4855 219.41,82.1522 219.5,79.5 Z"/></g>
<g><path style="opacity:1" fill="#ef9e3f" d="M 120.5,78.5 C 125.506,79.1715 129.839,81.1715 133.5,84.5C 127.544,85.579 123.211,83.579 120.5,78.5 Z"/></g>
<g><path style="opacity:1" fill="#e9ad5e" d="M 136.5,88.5 C 137.339,89.6412 138.006,90.9745 138.5,92.5C 138.05,95.7145 136.717,98.3811 134.5,100.5C 136,96.6699 136.667,92.6699 136.5,88.5 Z"/></g>
<g><path style="opacity:1" fill="#edac5b" d="M 86.5,85.5 C 85.6113,90.7285 84.278,95.7285 82.5,100.5C 81.8397,94.8628 83.173,89.8628 86.5,85.5 Z"/></g>
<g><path style="opacity:1" fill="#ebb567" d="M 1.5,91.5 C 1.77086,96.4338 1.10419,101.1 -0.5,105.5C -0.5,102.833 -0.5,100.167 -0.5,97.5C 0.166667,95.5 0.833333,93.5 1.5,91.5 Z"/></g>
<g><path style="opacity:1" fill="#e7a957" d="M 108.5,88.5 C 108.325,92.5406 108.158,96.5406 108,100.5C 110.672,101.282 113.172,102.282 115.5,103.5C 111.737,103.143 108.07,102.31 104.5,101C 105.772,96.7195 107.106,92.5528 108.5,88.5 Z"/></g>
<g><path style="opacity:1" fill="#f09e40" d="M 159.5,83.5 C 161.458,85.1 162.792,87.2666 163.5,90C 162.625,94.8181 162.458,99.6514 163,104.5C 162.586,104.043 162.086,103.709 161.5,103.5C 160.738,104.628 160.071,105.795 159.5,107C 157.266,108.75 154.932,110.25 152.5,111.5C 160.79,103.672 163.124,94.3382 159.5,83.5 Z"/></g>
<g><path style="opacity:1" fill="#eca34f" d="M 221.5,86.5 C 222.607,90.1424 223.607,93.8091 224.5,97.5C 224.5,100.167 224.5,102.833 224.5,105.5C 223.778,105.082 223.278,104.416 223,103.5C 222.243,97.8507 221.743,92.184 221.5,86.5 Z"/></g>
<g><path style="opacity:1" fill="#edb770" d="M 82.5,101.5 C 81.9448,105.397 80.9448,109.063 79.5,112.5C 79.4318,108.43 80.4318,104.763 82.5,101.5 Z"/></g>
<g><path style="opacity:0.996" fill="#eea24d" d="M 152.5,111.5 C 152.414,112.496 152.748,113.329 153.5,114C 152.167,114.333 150.833,114.667 149.5,115C 150.381,115.708 151.047,116.542 151.5,117.5C 149.391,116.609 147.391,115.442 145.5,114C 147.854,113.153 150.188,112.32 152.5,111.5 Z"/></g>
<g><path style="opacity:1" fill="#ebaf5f" d="M 108.5,114.5 C 113.59,115.263 118.257,116.93 122.5,119.5C 117.175,119.319 112.508,117.652 108.5,114.5 Z"/></g>
<g><path style="opacity:1" fill="#f6921b" d="M 107.5,114.5 C 107.833,114.5 108.167,114.5 108.5,114.5C 112.508,117.652 117.175,119.319 122.5,119.5C 122.833,119.5 123.167,119.5 123.5,119.5C 123.966,121.201 123.966,122.701 123.5,124C 124.449,124.617 125.282,124.451 126,123.5C 128.306,124.73 130.473,126.063 132.5,127.5C 132.5,129.833 132.5,132.167 132.5,134.5C 131.448,134.351 130.448,134.517 129.5,135C 130.38,136.356 130.714,137.856 130.5,139.5C 129.5,139.5 128.5,139.5 127.5,139.5C 127.5,140.5 127.5,141.5 127.5,142.5C 117.436,142.589 107.436,141.922 97.5,140.5C 97.5,137.833 97.5,135.167 97.5,132.5C 99.6727,129.983 100.673,126.983 100.5,123.5C 101.5,123.5 102.5,123.5 103.5,123.5C 102.841,120.545 102.508,117.545 102.5,114.5C 104.167,114.5 105.833,114.5 107.5,114.5 Z"/></g>
<g><path style="opacity:1" fill="#e7a557" d="M 79.5,114.5 C 78.4563,119.356 77.123,124.022 75.5,128.5C 75.1673,123.217 76.5007,118.55 79.5,114.5 Z"/></g>
<g><path style="opacity:1" fill="#eca047" d="M 107.5,114.5 C 105.833,114.5 104.167,114.5 102.5,114.5C 102.508,117.545 102.841,120.545 103.5,123.5C 102.5,123.5 101.5,123.5 100.5,123.5C 100.673,126.983 99.6727,129.983 97.5,132.5C 98.6801,125.778 100.18,119.111 102,112.5C 103.948,113.109 105.782,113.776 107.5,114.5 Z"/></g>
<g><path style="opacity:1" fill="#e9c68c" d="M 155.5,122.5 C 157.048,122.821 157.715,123.821 157.5,125.5C 156.599,124.71 155.932,123.71 155.5,122.5 Z"/></g>
<g><path style="opacity:1" fill="#eb9e42" d="M 123.5,119.5 C 127.767,120.768 130.767,123.435 132.5,127.5C 130.473,126.063 128.306,124.73 126,123.5C 125.282,124.451 124.449,124.617 123.5,124C 123.966,122.701 123.966,121.201 123.5,119.5 Z"/></g>
<g><path style="opacity:1" fill="#ecb269" d="M -0.5,119.5 C 1.17727,123.545 1.84394,127.878 1.5,132.5C 0.833333,130.5 0.166667,128.5 -0.5,126.5C -0.5,124.167 -0.5,121.833 -0.5,119.5 Z"/></g>
<g><path style="opacity:1" fill="#ecaf64" d="M 75.5,129.5 C 75.3757,131.582 74.3757,133.082 72.5,134C 68.9078,134.397 65.4078,133.897 62,132.5C 60.4009,133.071 59.2342,134.071 58.5,135.5C 58.2865,133.856 58.6198,132.356 59.5,131C 62.5658,131.587 65.7325,132.087 69,132.5C 71.7179,132.436 73.8845,131.436 75.5,129.5 Z"/></g>
<g><path style="opacity:0.153" fill="#f8d0a1" d="M 157.5,125.5 C 158.117,125.611 158.617,125.944 159,126.5C 159.81,130.358 159.643,134.024 158.5,137.5C 158.693,133.434 158.36,129.434 157.5,125.5 Z"/></g>
<g><path style="opacity:1" fill="#eeb874" d="M 224.5,120.5 C 224.5,122.167 224.5,123.833 224.5,125.5C 223.684,129.539 222.684,133.539 221.5,137.5C 221.613,131.539 222.613,125.872 224.5,120.5 Z"/></g>
<g><path style="opacity:1" fill="#ecb266" d="M 1.5,133.5 C 2.11742,133.611 2.61742,133.944 3,134.5C 4.4066,140.88 5.9066,147.213 7.5,153.5C 4.52495,147.232 2.52495,140.565 1.5,133.5 Z"/></g>
<g><path style="opacity:0.8" fill="#ebaf69" d="M 58.5,135.5 C 58.2927,138.241 57.2927,140.574 55.5,142.5C 55.5516,139.654 56.5516,137.32 58.5,135.5 Z"/></g>
<g><path style="opacity:1" fill="#eaa34e" d="M 132.5,127.5 C 135.248,133.469 133.914,138.635 128.5,143C 125.217,144.023 121.884,144.857 118.5,145.5C 110.778,144.422 103.111,143.089 95.5,141.5C 95.4203,138.219 96.087,135.219 97.5,132.5C 97.5,135.167 97.5,137.833 97.5,140.5C 107.436,141.922 117.436,142.589 127.5,142.5C 127.5,141.5 127.5,140.5 127.5,139.5C 128.5,139.5 129.5,139.5 130.5,139.5C 130.714,137.856 130.38,136.356 129.5,135C 130.448,134.517 131.448,134.351 132.5,134.5C 132.5,132.167 132.5,129.833 132.5,127.5 Z"/></g>
<g><path style="opacity:0.188" fill="#ffe194" d="M 55.5,143.5 C 55.5569,144.609 55.8902,145.609 56.5,146.5C 54.4482,145.947 54.1148,144.947 55.5,143.5 Z"/></g>
<g><path style="opacity:1" fill="#ebbe75" d="M 62.5,147.5 C 65.0673,147.721 67.4006,148.388 69.5,149.5C 67.4727,149.662 65.4727,149.495 63.5,149C 62.944,148.617 62.6107,148.117 62.5,147.5 Z"/></g>
<g><path style="opacity:1" fill="#ecb66f" d="M 70.5,149.5 C 72.7857,149.595 74.7857,150.262 76.5,151.5C 73.9899,151.946 71.9899,151.28 70.5,149.5 Z"/></g>
<g><path style="opacity:1" fill="#eda550" d="M 157.5,143.5 C 157.167,146.167 156.833,148.833 156.5,151.5C 155.5,151.5 154.5,151.5 153.5,151.5C 154.65,148.702 155.983,146.035 157.5,143.5 Z"/></g>
<g><path style="opacity:1" fill="#eaba79" d="M 77.5,151.5 C 78.4972,151.47 79.1639,151.97 79.5,153C 79.0463,155.03 78.3796,156.863 77.5,158.5C 77.5,156.167 77.5,153.833 77.5,151.5 Z"/></g>
<g><path style="opacity:1" fill="#eca756" d="M 220.5,141.5 C 219.131,148.282 216.798,154.615 213.5,160.5C 214.24,156.063 215.407,151.73 217,147.5C 217.739,145.111 218.905,143.111 220.5,141.5 Z"/></g>
<g><path style="opacity:0.714" fill="#f2c691" d="M 153.5,151.5 C 152.5,154.5 150.5,156.5 147.5,157.5C 149.167,155.167 151.167,153.167 153.5,151.5 Z"/></g>
<g><path style="opacity:1" fill="#e5ab64" d="M 99.5,157.5 C 96.1625,157.065 93.1625,157.732 90.5,159.5C 90.5,158.167 90.5,156.833 90.5,155.5C 93.7814,155.42 96.7814,156.087 99.5,157.5 Z"/></g>
<g><path style="opacity:1" fill="#e7b471" d="M 99.5,157.5 C 100.497,157.47 101.164,157.97 101.5,159C 101.046,161.03 100.38,162.863 99.5,164.5C 99.5,162.167 99.5,159.833 99.5,157.5 Z"/></g>
<g><path style="opacity:1" fill="#ebb56d" d="M 77.5,159.5 C 76.8156,163.571 75.8156,167.571 74.5,171.5C 78.2542,173.439 82.2542,174.439 86.5,174.5C 86.2627,173.209 86.596,172.209 87.5,171.5C 87.5,172.833 87.5,174.167 87.5,175.5C 83.0202,175.732 78.6868,175.065 74.5,173.5C 74.1667,172.833 73.8333,172.167 73.5,171.5C 74.4911,167.869 75.3244,164.202 76,160.5C 76.3826,159.944 76.8826,159.611 77.5,159.5 Z"/></g>
<g><path style="opacity:1" fill="#dca049" d="M 139.5,161.5 C 134.928,163.558 130.262,163.891 125.5,162.5C 126.5,162.5 127.5,162.5 128.5,162.5C 132.119,161.756 135.785,161.423 139.5,161.5 Z"/></g>
<g><path style="opacity:1" fill="#eaa247" d="M 90.5,159.5 C 90.8204,162.898 90.487,166.232 89.5,169.5C 88.8182,170.243 88.1515,170.909 87.5,171.5C 87.8984,167.239 88.8984,163.239 90.5,159.5 Z"/></g>
<g><path style="opacity:1" fill="#eeae5e" d="M 128.5,162.5 C 127.5,162.5 126.5,162.5 125.5,162.5C 121.818,162.335 118.152,162.501 114.5,163C 113.51,166.759 112.677,170.593 112,174.5C 111.148,175.571 110.315,176.571 109.5,177.5C 110.287,171.851 111.621,166.351 113.5,161C 118.66,160.938 123.66,161.438 128.5,162.5 Z"/></g>
<g><path style="opacity:1" fill="#ef9c3c" d="M 8.5,156.5 C 10.7789,157.445 12.4456,159.112 13.5,161.5C 14.9702,165.774 16.9702,169.774 19.5,173.5C 21.4233,174.308 23.4233,174.808 25.5,175C 24.572,175.388 23.9054,176.055 23.5,177C 25.3163,184.094 27.6496,184.261 30.5,177.5C 30.8333,178.333 31.1667,179.167 31.5,180C 31.0314,181.887 30.0314,183.387 28.5,184.5C 29.2458,185.736 29.5792,187.07 29.5,188.5C 20.514,179.211 13.514,168.544 8.5,156.5 Z"/></g>
<g><path style="opacity:1" fill="#eea74b" d="M 207.5,171.5 C 205.6,175.732 202.933,179.399 199.5,182.5C 199.318,180.409 199.652,178.409 200.5,176.5C 201.325,175.614 202.325,175.281 203.5,175.5C 203.5,174.5 203.5,173.5 203.5,172.5C 204.959,172.567 206.292,172.234 207.5,171.5 Z"/></g>
<g><path style="opacity:1" fill="#efac5f" d="M 96.5,177.5 C 100.4,178.808 104.4,179.808 108.5,180.5C 108.263,179.209 108.596,178.209 109.5,177.5C 109.5,178.833 109.5,180.167 109.5,181.5C 105.466,181.328 101.466,180.828 97.5,180C 96.7476,179.329 96.4142,178.496 96.5,177.5 Z"/></g>
<g><path style="opacity:1" fill="#ebc071" d="M 37.5,196.5 C 39.0269,196.427 40.0269,197.094 40.5,198.5C 38.9731,198.573 37.9731,197.906 37.5,196.5 Z"/></g>
<g><path style="opacity:1" fill="#eba74e" d="M 40.5,198.5 C 42.5582,199.933 44.8915,200.6 47.5,200.5C 47.281,201.675 47.6143,202.675 48.5,203.5C 51.4263,204.265 53.4263,205.932 54.5,208.5C 48.9927,206.323 44.3261,202.99 40.5,198.5 Z"/></g>
<g><path style="opacity:1" fill="#eda042" d="M 185.5,197.5 C 181.223,201.312 176.557,204.645 171.5,207.5C 171.5,206.167 171.5,204.833 171.5,203.5C 172.833,203.5 174.167,203.5 175.5,203.5C 175.343,202.127 175.51,200.793 176,199.5C 178.437,202.149 179.77,201.483 180,197.5C 180.967,196.794 182.8,196.794 185.5,197.5 Z"/></g>
<g><path style="opacity:1" fill="#efaa59" d="M 168.5,209.5 C 163.265,212.949 157.598,215.616 151.5,217.5C 155.444,213.065 161.11,210.399 168.5,209.5 Z"/></g>
<g><path style="opacity:1" fill="#e7ae61" d="M 73.5,217.5 C 75.8984,217.259 77.8984,217.926 79.5,219.5C 77.1016,219.741 75.1016,219.074 73.5,217.5 Z"/></g>
<g><path style="opacity:1" fill="#e8b06e" d="M 79.5,219.5 C 82.1522,219.41 84.4855,220.076 86.5,221.5C 83.8478,221.59 81.5145,220.924 79.5,219.5 Z"/></g>
<g><path style="opacity:1" fill="#ebaf64" d="M 150.5,217.5 C 146.805,219.432 142.805,220.765 138.5,221.5C 141.974,219.23 145.974,217.897 150.5,217.5 Z"/></g>
<g><path style="opacity:1" fill="#eda44e" d="M 86.5,221.5 C 92.5112,221.801 98.5112,222.301 104.5,223C 105.056,223.383 105.389,223.883 105.5,224.5C 102.833,224.5 100.167,224.5 97.5,224.5C 93.8091,223.607 90.1424,222.607 86.5,221.5 Z"/></g>
<g><path style="opacity:1" fill="#f4b05f" d="M 132.5,222.5 C 130.5,223.167 128.5,223.833 126.5,224.5C 123.5,224.5 120.5,224.5 117.5,224.5C 117.611,223.883 117.944,223.383 118.5,223C 123.155,222.501 127.821,222.334 132.5,222.5 Z"/></g>
</svg>
